<svg width="57" height="56" viewBox="0 0 57 56" fill="none" xmlns="http://www.w3.org/2000/svg">
<path d="M37.8739 0H8.85189C8.04389 0 7.38889 0.655 7.38889 1.926V55C7.38889 55.345 8.04389 56 8.85189 56H48.9259C49.7339 56 50.3889 55.345 50.3889 55V12.978C50.3889 12.282 50.2959 12.058 50.1319 11.893L38.4959 0.257C38.3309 0.093 38.1069 0 37.8739 0Z" fill="#E9E9E0"/>
<path d="M38.3889 0.151001V12H50.2379L38.3889 0.151001Z" fill="#D9D7CA"/>
<path d="M48.9259 56H8.85189C8.04389 56 7.38889 55.345 7.38889 54.537V39H50.3889V54.537C50.3889 55.345 49.7339 56 48.9259 56Z" fill="#0096E6"/>
<path d="M24.4689 51.975C24.0949 52.339 23.6709 52.613 23.1979 52.795C22.7249 52.977 22.2139 53.068 21.6669 53.068C21.0649 53.068 20.5119 52.959 20.0059 52.74C19.4999 52.521 19.0579 52.198 18.6799 51.769C18.3019 51.34 18.0049 50.803 17.7909 50.156C17.5769 49.509 17.4699 48.761 17.4699 47.914C17.4699 47.067 17.5769 46.321 17.7909 45.679C18.0049 45.036 18.3019 44.501 18.6799 44.073C19.0579 43.645 19.5019 43.319 20.0129 43.095C20.5239 42.871 21.0749 42.76 21.6669 42.76C22.2139 42.76 22.7249 42.851 23.1979 43.033C23.6709 43.215 24.0949 43.489 24.4689 43.853L23.3339 44.865C23.1059 44.6 22.8539 44.409 22.5749 44.291C22.2959 44.173 22.0079 44.113 21.7069 44.113C21.3699 44.113 21.0489 44.176 20.7429 44.304C20.4369 44.432 20.1639 44.648 19.9229 44.953C19.6819 45.258 19.4919 45.652 19.3559 46.136C19.2199 46.62 19.1459 47.211 19.1369 47.913C19.1459 48.597 19.2169 49.18 19.3489 49.663C19.4809 50.146 19.6629 50.54 19.8959 50.846C20.1289 51.152 20.3929 51.374 20.6889 51.516C20.9849 51.658 21.2969 51.728 21.6259 51.728C21.9549 51.728 22.2619 51.668 22.5489 51.55C22.8359 51.432 23.0979 51.24 23.3349 50.976L24.4689 51.975Z" fill="white"/>
<path d="M32.5219 50.238C32.5219 50.602 32.4469 50.956 32.2959 51.298C32.1449 51.64 31.9339 51.941 31.6599 52.2C31.3859 52.459 31.0499 52.667 30.6479 52.822C30.2459 52.977 29.7919 53.054 29.2809 53.054C29.0619 53.054 28.8369 53.042 28.6039 53.02C28.3709 52.998 28.1369 52.958 27.8999 52.904C27.6629 52.85 27.4369 52.774 27.2229 52.678C27.0089 52.582 26.8249 52.466 26.6689 52.329L26.9559 51.153C27.0839 51.226 27.2449 51.297 27.4409 51.365C27.6369 51.433 27.8389 51.497 28.0489 51.556C28.2589 51.615 28.4679 51.663 28.6779 51.7C28.8879 51.737 29.0829 51.755 29.2659 51.755C29.8219 51.755 30.2479 51.625 30.5439 51.365C30.8399 51.105 30.9879 50.72 30.9879 50.21C30.9879 49.9 30.8839 49.636 30.6739 49.417C30.4639 49.198 30.2019 49 29.8879 48.822C29.5739 48.644 29.2339 48.467 28.8689 48.289C28.5039 48.111 28.1629 47.901 27.8439 47.66C27.5249 47.419 27.2609 47.134 27.0509 46.806C26.8409 46.478 26.7369 46.068 26.7369 45.576C26.7369 45.13 26.8189 44.733 26.9829 44.387C27.1469 44.041 27.3679 43.746 27.6459 43.505C27.9239 43.264 28.2479 43.079 28.6169 42.951C28.9859 42.823 29.3759 42.76 29.7859 42.76C30.2049 42.76 30.6289 42.799 31.0569 42.876C31.4849 42.953 31.8309 43.079 32.0959 43.252C32.0409 43.37 31.9779 43.5 31.9049 43.642C31.8319 43.784 31.7629 43.915 31.6999 44.038C31.6369 44.161 31.5819 44.264 31.5359 44.346C31.4899 44.428 31.4629 44.474 31.4539 44.483C31.3989 44.456 31.3379 44.42 31.2689 44.374C31.1999 44.328 31.1029 44.283 30.9749 44.237C30.8469 44.191 30.6789 44.16 30.4689 44.141C30.2589 44.122 29.9899 44.127 29.6619 44.155C29.4789 44.174 29.3069 44.225 29.1419 44.312C28.9769 44.399 28.8319 44.505 28.7039 44.633C28.5759 44.761 28.4759 44.904 28.4029 45.064C28.3299 45.224 28.2939 45.377 28.2939 45.522C28.2939 45.886 28.3979 46.18 28.6079 46.404C28.8179 46.628 29.0779 46.823 29.3869 46.992C29.6959 47.161 30.0339 47.325 30.3989 47.484C30.7639 47.643 31.1029 47.838 31.4179 48.065C31.7329 48.292 31.9939 48.578 32.2039 48.919C32.4139 49.26 32.5219 49.7 32.5219 50.238Z" fill="white"/>
<path d="M39.9319 50.238C39.9319 50.602 39.8569 50.956 39.7059 51.298C39.5549 51.64 39.3439 51.941 39.0699 52.2C38.7959 52.459 38.4599 52.667 38.0579 52.822C37.6559 52.977 37.2019 53.054 36.6909 53.054C36.4719 53.054 36.2469 53.042 36.0139 53.02C35.7809 52.998 35.5469 52.958 35.3099 52.904C35.0729 52.85 34.8469 52.774 34.6329 52.678C34.4189 52.582 34.2349 52.466 34.0789 52.329L34.3659 51.153C34.4939 51.226 34.6549 51.297 34.8509 51.365C35.0469 51.433 35.2489 51.497 35.4589 51.556C35.6689 51.615 35.8779 51.663 36.0879 51.7C36.2979 51.737 36.4929 51.755 36.6759 51.755C37.2319 51.755 37.6579 51.625 37.9539 51.365C38.2499 51.105 38.3979 50.72 38.3979 50.21C38.3979 49.9 38.2939 49.636 38.0839 49.417C37.8739 49.198 37.6119 49 37.2979 48.822C36.9839 48.644 36.6439 48.467 36.2789 48.289C35.9139 48.111 35.5729 47.901 35.2539 47.66C34.9349 47.419 34.6709 47.134 34.4609 46.806C34.2509 46.478 34.1469 46.068 34.1469 45.576C34.1469 45.13 34.2289 44.733 34.3929 44.387C34.5569 44.041 34.7779 43.746 35.0559 43.505C35.3339 43.264 35.6579 43.079 36.0269 42.951C36.3959 42.823 36.7859 42.76 37.1959 42.76C37.6149 42.76 38.0389 42.799 38.4669 42.876C38.8949 42.953 39.2409 43.079 39.5059 43.252C39.4509 43.37 39.3879 43.5 39.3149 43.642C39.2419 43.784 39.1729 43.915 39.1099 44.038C39.0469 44.161 38.9919 44.264 38.9459 44.346C38.8999 44.428 38.8729 44.474 38.8639 44.483C38.8089 44.456 38.7479 44.42 38.6789 44.374C38.6099 44.328 38.5129 44.283 38.3849 44.237C38.2569 44.191 38.0889 44.16 37.8789 44.141C37.6689 44.122 37.3999 44.127 37.0719 44.155C36.8889 44.174 36.7169 44.225 36.5519 44.312C36.3869 44.399 36.2419 44.505 36.1139 44.633C35.9859 44.761 35.8859 44.904 35.8129 45.064C35.7399 45.224 35.7039 45.377 35.7039 45.522C35.7039 45.886 35.8079 46.18 36.0179 46.404C36.2279 46.628 36.4879 46.823 36.7969 46.992C37.1059 47.161 37.4439 47.325 37.8089 47.484C38.1739 47.643 38.5129 47.838 38.8279 48.065C39.1429 48.292 39.4039 48.578 39.6139 48.919C39.8239 49.26 39.9319 49.7 39.9319 50.238Z" fill="white"/>
<path d="M20.3889 19V15C20.3889 14.449 20.8369 14 21.3889 14C21.9419 14 22.3889 13.552 22.3889 13C22.3889 12.448 21.9419 12 21.3889 12C19.7349 12 18.3889 13.346 18.3889 15V19C18.3889 20.103 17.4919 21 16.3889 21C15.8359 21 15.3889 21.448 15.3889 22C15.3889 22.552 15.8359 23 16.3889 23C17.4919 23 18.3889 23.897 18.3889 25V29C18.3889 30.654 19.7349 32 21.3889 32C21.9419 32 22.3889 31.552 22.3889 31C22.3889 30.448 21.9419 30 21.3889 30C20.8369 30 20.3889 29.551 20.3889 29V25C20.3889 23.8 19.8469 22.734 19.0069 22C19.8469 21.266 20.3889 20.2 20.3889 19Z" fill="#0096E6"/>
<path d="M40.3889 21C39.2859 21 38.3889 20.103 38.3889 19V15C38.3889 13.346 37.0429 12 35.3889 12C34.8359 12 34.3889 12.448 34.3889 13C34.3889 13.552 34.8359 14 35.3889 14C35.9409 14 36.3889 14.449 36.3889 15V19C36.3889 20.2 36.9309 21.266 37.7709 22C36.9309 22.734 36.3889 23.8 36.3889 25V29C36.3889 29.551 35.9409 30 35.3889 30C34.8359 30 34.3889 30.448 34.3889 31C34.3889 31.552 34.8359 32 35.3889 32C37.0429 32 38.3889 30.654 38.3889 29V25C38.3889 23.897 39.2859 23 40.3889 23C40.9419 23 41.3889 22.552 41.3889 22C41.3889 21.448 40.9419 21 40.3889 21Z" fill="#0096E6"/>
</svg>
