<svg width="57" height="56" viewBox="0 0 57 56" fill="none" xmlns="http://www.w3.org/2000/svg">
<g clip-path="url(#clip0_74_265)">
<path d="M42.5386 22.7416C43.8512 22.7416 45.0644 22.8806 46.536 23.1789L45.4873 25.388C44.6719 25.2289 45.422 25.3667 44.8059 25.307V25.6253L44.8455 26.9177L44.8653 28.5883C44.8851 29.0058 44.8851 29.4235 44.9052 29.8411V30.6764C44.9052 33.3015 44.6864 34.5344 44.0302 35.5485C43.0756 37.0402 41.425 37.7759 39.0784 37.7759C37.8852 37.7759 36.8513 37.597 35.7772 37.1793V34.3554H35.7773C36.8514 34.9122 37.9252 35.1706 39.0586 35.1706C41.0671 35.1706 41.9222 34.3554 41.9222 32.4064V32.3468C41.3257 32.6449 40.729 32.7644 39.9337 32.7644C37.249 32.7644 35.5384 30.9944 35.5384 28.1905C35.5384 24.7101 38.0643 22.7416 42.5386 22.7416ZM14.7593 22.9404V30.0398C14.7593 32.486 14.5803 33.6592 14.0434 34.6735C13.5462 35.6481 12.8898 36.2644 11.5376 36.9406L8.69378 35.5883C10.0461 34.952 10.7023 34.3953 11.1199 33.5399C11.5575 32.6649 11.6968 31.6507 11.6968 28.9859V22.9404H14.7593ZM51.2904 22.6819C54.3528 22.6819 56.2223 24.611 56.2223 27.7331C56.2223 30.935 54.2735 32.9436 51.1711 32.9436C48.1083 32.9436 46.2191 31.0145 46.2191 27.9122C46.2193 24.6903 48.1683 22.6819 51.2904 22.6819ZM20.6661 22.7218C22.2372 22.7218 23.2712 23.1393 23.7287 23.9547C23.9871 24.412 24.0666 25.0086 24.0666 26.2815V32.5058C22.6943 32.7047 20.9642 32.844 19.6916 32.844C17.1263 32.844 15.9727 31.9488 15.9727 29.9603C15.9727 27.8124 17.504 26.8182 21.2627 26.4999V25.8238C21.2627 25.267 20.9843 25.0683 20.2086 25.0683C19.0752 25.0683 17.8024 25.3864 16.609 26.003V23.6364H16.6091C17.9616 23.0002 19.2541 22.7218 20.6661 22.7218ZM9.88728 18.2109V32.3867C8.31622 32.6849 7.16275 32.8043 5.90998 32.8043C2.17117 32.8043 0.22229 31.114 0.22229 27.8723C0.22229 24.7501 2.29061 22.7218 5.49226 22.7218C5.98939 22.7218 6.36721 22.7614 6.8247 22.8808V18.2109H9.88728ZM30.3707 22.7218C31.9418 22.7218 33.0754 23.0796 33.7517 23.7757C34.3881 24.4318 34.5868 25.1477 34.5868 26.6792V32.6848H31.5242V26.7985C31.5242 25.6253 31.1265 25.1876 30.0328 25.1876C29.6152 25.1876 29.2374 25.2273 28.6207 25.4063V32.6848H25.5582V23.4177C27.3678 22.9404 28.8593 22.7218 30.3707 22.7218ZM21.4018 28.5087C19.3733 28.7075 18.7171 29.0258 18.7171 29.8212C18.7171 30.4178 19.095 30.6962 19.9302 30.6962C20.3877 30.6962 20.8052 30.6565 21.4018 30.5571V28.5087ZM51.2507 25.1478C50.0375 25.1478 49.3412 26.1224 49.3412 27.8125C49.3414 29.503 50.0375 30.4774 51.2305 30.4774C52.4039 30.4774 53.1001 29.5029 53.1001 27.8125C53.1001 26.1422 52.4238 25.1478 51.2507 25.1478ZM5.79067 25.1876C4.23949 25.1876 3.34453 26.1422 3.34453 27.8125C3.34453 29.4434 4.19972 30.3382 5.77078 30.3382C6.1087 30.3382 6.38722 30.3183 6.8247 30.2588V25.3465C6.46676 25.2273 6.16849 25.1876 5.79067 25.1876ZM39.7746 25.6448C39.039 26.0625 38.6609 26.8183 38.6609 27.8921C38.6609 29.4235 39.4168 30.2985 40.769 30.2985C41.1866 30.2985 41.5248 30.2188 41.9224 30.0996V29.0457C41.9224 28.6878 41.9026 28.2898 41.9026 27.8723L41.8829 26.4605L41.8629 25.4462V25.2075H41.5446C40.9481 25.1876 40.2521 25.3465 39.7746 25.6448ZM14.7593 18.2272V21.3694H11.6968V18.2272H14.7593Z" fill="#092E20"/>
</g>
<defs>
<clipPath id="clip0_74_265">
<rect width="56" height="56" fill="white" transform="translate(0.22229)"/>
</clipPath>
</defs>
</svg>
