<svg width="57" height="56" viewBox="0 0 57 56" fill="none" xmlns="http://www.w3.org/2000/svg">
<path d="M37.7778 37.3333C42.9324 37.3333 47.1111 33.1546 47.1111 28C47.1111 22.8453 42.9324 18.6666 37.7778 18.6666C32.6231 18.6666 28.4445 22.8453 28.4445 28C28.4445 33.1546 32.6231 37.3333 37.7778 37.3333Z" fill="#19BCFE"/>
<path fill-rule="evenodd" clip-rule="evenodd" d="M19.1111 56C24.2658 56 28.4445 51.8214 28.4445 46.6667C28.4445 45.2596 28.4445 42.1485 28.4445 37.3334C24.2515 37.3334 21.1404 37.3334 19.1111 37.3334C13.9565 37.3334 9.77779 41.512 9.77779 46.6667C9.77779 51.8214 13.9565 56 19.1111 56Z" fill="#09CF83"/>
<path fill-rule="evenodd" clip-rule="evenodd" d="M19.1111 37.3333C20.8293 37.3333 23.9404 37.3333 28.4445 37.3333V18.6666C23.9404 18.6666 20.8293 18.6666 19.1111 18.6666C13.9565 18.6666 9.77779 22.8453 9.77779 28C9.77779 33.1546 13.9565 37.3333 19.1111 37.3333Z" fill="#A259FF"/>
<path fill-rule="evenodd" clip-rule="evenodd" d="M19.1111 18.6667C20.8293 18.6667 23.9404 18.6667 28.4445 18.6667V0C23.9404 0 20.8293 0 19.1111 0C13.9565 0 9.77779 4.17868 9.77779 9.33333C9.77779 14.488 13.9565 18.6667 19.1111 18.6667Z" fill="#F24E1E"/>
<path fill-rule="evenodd" clip-rule="evenodd" d="M37.7778 18.6667H28.4445V0H37.7778C42.9324 0 47.1111 4.17868 47.1111 9.33333C47.1111 14.488 42.9324 18.6667 37.7778 18.6667Z" fill="#FF7262"/>
</svg>
