<svg width="56" height="56" viewBox="0 0 56 56" fill="none" xmlns="http://www.w3.org/2000/svg">
<path d="M36.985 0H7.963C7.155 0 6.5 0.655 6.5 1.926V55C6.5 55.345 7.155 56 7.963 56H48.037C48.845 56 49.5 55.345 49.5 55V12.978C49.5 12.282 49.407 12.058 49.243 11.893L37.607 0.257C37.442 0.093 37.218 0 36.985 0Z" fill="#E9E9E0"/>
<path d="M37.5 0.151001V12H49.349L37.5 0.151001Z" fill="#D9D7CA"/>
<path d="M48.037 56H7.963C7.155 56 6.5 55.345 6.5 54.537V39H49.5V54.537C49.5 55.345 48.845 56 48.037 56Z" fill="#EC6630"/>
<path d="M17.455 42.924V53H15.814V48.4609H11.453V53H9.785V42.924H11.453V47.34H15.814V42.924H17.455Z" fill="white"/>
<path d="M27.107 42.924V44.0449H24.1V53H22.446V44.0449H19.438V42.924H27.107Z" fill="white"/>
<path d="M36.705 42.924H38.373V53H36.705V46.068L34.449 51.673H33L30.73 46.068V53H29.062V42.924H30.73L33.724 49.8149L36.705 42.924Z" fill="white"/>
<path d="M42.57 42.924V51.756H47.205V53H40.902V42.924H42.57Z" fill="white"/>
<path d="M23.207 16.293C22.816 15.902 22.184 15.902 21.793 16.293L15.793 22.293C15.402 22.684 15.402 23.316 15.793 23.707L21.793 29.707C21.988 29.902 22.244 30 22.5 30C22.756 30 23.012 29.902 23.207 29.707C23.598 29.316 23.598 28.684 23.207 28.293L17.914 23L23.207 17.707C23.598 17.316 23.598 16.684 23.207 16.293Z" fill="#EC6630"/>
<path d="M41.207 22.293L35.207 16.293C34.816 15.902 34.184 15.902 33.793 16.293C33.402 16.684 33.402 17.316 33.793 17.707L39.086 23L33.793 28.293C33.402 28.684 33.402 29.316 33.793 29.707C33.988 29.902 34.244 30 34.5 30C34.756 30 35.012 29.902 35.207 29.707L41.207 23.707C41.598 23.316 41.598 22.684 41.207 22.293Z" fill="#EC6630"/>
</svg>
