<svg width="57" height="56" viewBox="0 0 57 56" fill="none" xmlns="http://www.w3.org/2000/svg">
<g clip-path="url(#clip0_74_326)">
<path d="M56.6667 0H0.666656V56H56.6667V0Z" fill="#F1DC50"/>
<path d="M28.6667 25.6666C28.6667 36.7481 28.6667 42.9703 28.6667 44.3333C28.6667 46.3777 27.4466 49 24 49C18.4341 49 18.1667 44.3333 18.1667 44.3333M49.1766 31.5374C47.7764 29.1791 45.9203 28 43.6082 28C39.9981 28 38 30.3333 38 32.6666C38 35 39.1667 37.3333 43.853 38.5C46.8351 39.2424 49.6667 40.8333 49.6667 44.3333C49.6667 47.8333 46.5972 49 43.8333 49C40.301 49 37.9677 47.4444 36.8333 44.3333" stroke="#333333" stroke-width="2"/>
</g>
<defs>
<clipPath id="clip0_74_326">
<rect width="56" height="56" fill="white" transform="translate(0.666656)"/>
</clipPath>
</defs>
</svg>
