<svg width="57" height="56" viewBox="0 0 57 56" fill="none" xmlns="http://www.w3.org/2000/svg">
<g clip-path="url(#clip0_74_330)">
<path d="M29.2872 0C28.9232 0 28.5505 0.01925 28.1655 0.04725C18.3042 0.8295 20.9205 11.2665 20.7735 14.7472C20.5915 17.29 20.0735 19.3042 18.3235 21.7945C16.2532 24.2463 13.3552 28.2117 11.9797 32.3382C11.334 34.279 11.0225 36.2775 11.3147 38.1552C11.2237 38.227 11.1327 38.3092 11.0505 38.4632C10.4485 39.0932 10.0005 39.8685 9.50873 40.4232C9.04498 40.887 8.37998 41.0445 7.64848 41.3542C6.92048 41.671 6.10848 41.9825 5.63423 42.9485C5.42423 43.3877 5.31398 43.8602 5.32448 44.3537C5.32448 44.8087 5.38923 45.283 5.45223 45.6015C5.59048 46.5307 5.72523 47.2972 5.54323 47.8625C4.96048 49.4462 4.89748 50.5312 5.29823 51.3257C5.70598 52.1097 6.54598 52.4195 7.48398 52.731C9.38098 53.1947 11.9412 53.0477 13.966 54.124C16.1237 55.2177 18.3217 55.692 20.0717 55.2282C21.2915 54.9552 22.331 54.1432 22.8875 53.0232C24.2542 53.0145 25.7575 52.3932 28.1567 52.2392C29.7877 52.101 31.83 52.8675 34.1715 52.703C34.2345 53.0232 34.3167 53.1667 34.4445 53.487V53.4957C35.3545 55.3087 37.0415 56.1295 38.8475 55.993C40.6412 55.8477 42.5557 54.7452 44.1045 52.941C45.5815 51.163 48.0332 50.414 49.6555 49.441C50.4675 48.9737 51.1237 48.3472 51.1692 47.4442C51.2235 46.515 50.7055 45.549 49.5102 44.2365V44.0072L49.5015 43.9985C49.1007 43.5347 48.9187 42.7507 48.7087 41.8407C48.5075 40.901 48.2887 40.0085 47.5607 39.3977C47.4137 39.27 47.2685 39.242 47.1145 39.088C46.9867 38.997 46.8292 38.9427 46.6752 38.934C47.678 35.952 47.286 32.991 46.264 30.3187C45.025 27.0287 42.8462 24.1587 41.196 22.19C39.3357 19.8467 37.514 17.6242 37.5507 14.3342C37.6137 9.31 38.1055 0.0245 29.2837 0.00525L29.2872 0ZM30.5175 7.94675H30.5542C31.046 7.94675 31.473 8.09375 31.9122 8.4035C32.3585 8.72025 32.6875 9.17875 32.9325 9.65125C33.1792 10.2532 33.3087 10.717 33.3245 11.3365C33.3245 11.2927 33.3332 11.2455 33.3332 11.2017V11.4467C33.3332 11.4275 33.3245 11.4117 33.3245 11.3925L33.3157 11.3365C33.3157 11.9035 33.1985 12.4687 32.971 12.9867C32.8607 13.279 32.698 13.545 32.4687 13.7707C32.4057 13.7357 32.341 13.699 32.2675 13.671C32.0225 13.5607 31.8037 13.5257 31.6025 13.363C31.4397 13.2982 31.2665 13.244 31.0915 13.2072C31.2017 13.0725 31.4292 12.8975 31.5202 12.7435C31.6392 12.4512 31.7022 12.1327 31.7215 11.8055V11.7582C31.7302 11.4485 31.6742 11.13 31.5745 10.829C31.4747 10.5192 31.3487 10.3617 31.1562 10.0537C30.955 9.898 30.7642 9.744 30.5262 9.744H30.4912C30.2725 9.744 30.08 9.807 29.8805 10.0537C29.6617 10.2707 29.4972 10.5367 29.4062 10.829C29.2785 11.13 29.205 11.4467 29.1962 11.7582V11.8055C29.1962 12.0137 29.2155 12.2237 29.24 12.4337C28.785 12.2797 28.2197 12.1135 27.819 11.9595C27.7997 11.8055 27.7822 11.6497 27.7822 11.4957V11.4485C27.7665 10.8307 27.882 10.2182 28.1305 9.65475C28.3212 9.14375 28.6677 8.7045 29.1332 8.414C29.5322 8.11475 30.0152 7.95025 30.5175 7.95025V7.94675ZM23.6085 8.085H23.6907C24.0197 8.085 24.3207 8.19525 24.6217 8.39475C24.9665 8.69575 25.243 9.0685 25.425 9.478C25.635 9.94525 25.7522 10.4177 25.789 11.0372V11.046C25.7977 11.3557 25.7977 11.522 25.7802 11.6672V11.858C25.7085 11.8772 25.6525 11.8947 25.5895 11.9122C25.2342 12.04 24.9525 12.222 24.6672 12.3795C24.6952 12.1695 24.6952 11.9595 24.676 11.7582V11.7215C24.6497 11.4135 24.585 11.2577 24.4852 10.9462C24.4135 10.71 24.2752 10.4912 24.0932 10.318C23.983 10.2182 23.829 10.1622 23.675 10.171H23.619C23.4562 10.1797 23.318 10.262 23.192 10.4807C23.0362 10.654 22.9452 10.8727 22.9102 11.1107C22.8455 11.3557 22.8262 11.62 22.8542 11.886V11.9122C22.8822 12.2325 22.9365 12.3882 23.045 12.6962C23.1447 13.006 23.2742 13.1635 23.4282 13.3175C23.4562 13.3455 23.4755 13.3647 23.5105 13.3717C23.3477 13.51 23.2375 13.538 23.1027 13.692C23.01 13.7567 22.912 13.839 22.793 13.8582C22.5462 13.5642 22.3362 13.2475 22.1542 12.9185C21.9285 12.4267 21.8095 11.8982 21.7902 11.3592C21.7535 10.8325 21.8182 10.3022 21.9722 9.8C22.1105 9.345 22.3292 8.91625 22.6372 8.55225C22.9382 8.2425 23.2392 8.0885 23.612 8.0885L23.6085 8.085ZM26.8075 12.068C27.5827 12.068 28.5137 12.2132 29.6425 12.9972C30.3267 13.4645 30.8657 13.6272 32.1047 14.0822C32.7067 14.4025 33.0515 14.7122 33.2247 15.022V14.7122C33.391 15.057 33.4085 15.449 33.2615 15.8042C32.9692 16.534 32.0575 17.3092 30.7747 17.773V17.7817C30.1535 18.0915 29.6075 18.557 28.9687 18.8667C28.323 19.1765 27.5915 19.551 26.608 19.488C26.2527 19.5037 25.8992 19.4512 25.5597 19.3322C25.306 19.1975 25.0505 19.04 24.8125 18.8685C24.3575 18.5587 23.9655 18.0932 23.3827 17.7835V17.7747H23.374C22.4342 17.2007 21.9337 16.5795 21.7692 16.1157C21.6152 15.4875 21.7605 15.0237 22.226 14.714C22.744 14.4042 23.108 14.084 23.346 13.93C23.591 13.7567 23.6837 13.692 23.7572 13.629H23.766V13.6202C24.158 13.146 24.7757 12.5265 25.726 12.215C26.0427 12.1327 26.4102 12.0697 26.8092 12.0697L26.8075 12.068ZM33.3332 17.0607C34.1732 20.37 36.1332 25.1737 37.3915 27.4977C38.0565 28.7455 39.3865 31.3705 39.9605 34.5537C40.3245 34.545 40.7252 34.5975 41.1557 34.7077C42.6677 30.807 39.8887 26.614 38.6217 25.4467C38.102 24.983 38.0757 24.6715 38.3295 24.6715C39.7067 25.9105 41.5092 28.3377 42.1655 31.0975C42.4665 32.3452 42.5417 33.6787 42.2215 34.9982C42.3755 35.0612 42.5312 35.1435 42.6957 35.1522C45.102 36.4035 45.9945 37.3415 45.5657 38.7432V38.6435C45.431 38.6365 45.284 38.6435 45.1475 38.6435H45.1107C45.4677 37.5515 44.6837 36.7115 42.624 35.7822C40.4907 34.853 38.7862 34.9982 38.494 36.8672C38.4747 36.967 38.4677 37.0212 38.459 37.1875C38.2927 37.2417 38.13 37.3047 37.9672 37.3327C36.9645 37.9627 36.4255 38.9007 36.1175 40.1047C35.8165 41.3525 35.7255 42.8015 35.6432 44.471C35.5872 45.255 35.2425 46.4292 34.8942 47.6227C31.3942 50.1287 26.5362 51.2137 22.4185 48.4067C22.1525 47.9517 21.8427 47.5317 21.4787 47.159C21.3055 46.8667 21.0867 46.613 20.833 46.3837C21.26 46.3837 21.6257 46.312 21.918 46.228C22.254 46.0652 22.52 45.7817 22.6547 45.4457C22.9015 44.8245 22.6547 43.8217 21.8427 42.728C21.043 41.6447 19.6745 40.4128 17.6777 39.1842C16.2025 38.255 15.373 37.1525 14.9897 35.9292C14.6065 34.6815 14.6607 33.3952 14.953 32.0933C15.527 29.596 16.9952 27.1635 17.935 25.6392C18.18 25.494 18.0172 25.9595 16.9777 27.9195C16.0555 29.6695 14.316 33.7435 16.6925 36.9058C16.7852 34.601 17.2945 32.3225 18.2062 30.198C19.517 27.2177 22.2715 22.0237 22.4902 17.9042C22.6005 17.9952 22.9925 18.2245 23.164 18.3785C23.6662 18.6882 24.0477 19.1537 24.5412 19.4635C25.033 19.9272 25.6525 20.2475 26.5835 20.2475C26.6745 20.2562 26.7567 20.2562 26.8372 20.2562C27.7945 20.2562 28.5435 19.9465 29.1612 19.635C29.835 19.3147 30.3845 18.851 30.892 18.697H30.9007C31.9857 18.3872 32.852 17.7572 33.335 17.0642L33.3332 17.0607ZM38.438 37.9627C38.529 39.3645 39.2412 40.8695 40.4977 41.1775C41.8645 41.4872 43.842 40.4022 44.6715 39.3925L45.1632 39.3732C45.9 39.354 46.5125 39.3925 47.139 39.9945L47.1477 40.0032C47.6307 40.467 47.86 41.2422 48.0595 42.0455C48.2607 42.9835 48.4147 43.8672 49.0167 44.5322C50.1455 45.7625 50.52 46.6462 50.5025 47.194C50.4657 47.803 50.0632 48.1127 49.3352 48.5782C47.867 49.518 45.2612 50.2372 43.6022 52.2445C42.1602 53.9665 40.4032 54.9045 38.851 55.0235C37.3022 55.1512 35.9617 54.5597 35.1777 52.9287L35.169 52.92C34.6772 51.989 34.8872 50.5312 35.2967 48.9807C35.708 47.4215 36.2995 45.8377 36.3817 44.5515C36.464 42.8837 36.555 41.4347 36.828 40.3112C37.1097 39.2262 37.549 38.451 38.333 38.024L38.4327 37.968L38.438 37.9627ZM13.1995 38.08H13.2275C13.3552 38.08 13.4742 38.0887 13.5915 38.1167C14.4665 38.2445 15.2417 38.892 15.9802 39.8667L18.103 43.75L18.1117 43.7587C18.677 44.9977 19.8705 46.2367 20.882 47.579C21.8952 48.972 22.6792 50.2197 22.5882 51.2417V51.261C22.45 52.9917 21.4665 53.9297 19.9632 54.278C18.4582 54.5877 16.416 54.278 14.3755 53.193C12.1162 51.9452 9.42648 52.0992 7.70448 51.7877C6.84873 51.6337 6.28348 51.3135 6.01748 50.8497C5.76373 50.386 5.75323 49.4445 6.30973 47.978V47.971C6.58273 47.187 6.38498 46.2122 6.24673 45.3547C6.11898 44.4237 6.05598 43.7027 6.34648 43.1655C6.71923 42.3815 7.27573 42.2362 7.95823 41.9177C8.64248 41.608 9.45448 41.454 10.0915 40.824H10.1002V40.8152C10.6935 40.1975 11.1415 39.4222 11.6595 38.864C12.0987 38.3897 12.5432 38.08 13.1995 38.08ZM29.9085 16.9067C28.8952 17.3705 27.7017 18.1545 26.4347 18.1545C25.1677 18.1545 24.1737 17.5367 23.4545 17.0695C23.0905 16.7527 22.7982 16.4412 22.5795 16.2855C22.1962 15.9775 22.2417 15.5032 22.4062 15.5032C22.66 15.5382 22.7072 15.82 22.87 15.9775C23.0992 16.1315 23.3722 16.4412 23.7082 16.7527C24.3925 17.2165 25.3042 17.8447 26.433 17.8447C27.5652 17.8447 28.8952 17.2165 29.6967 16.7527C30.1517 16.443 30.7345 15.9775 31.2087 15.6677C31.5727 15.3475 31.557 15.0377 31.8545 15.0377C32.1555 15.0745 31.9385 15.3475 31.5185 15.813C31.0897 16.1332 30.4335 16.597 29.9067 16.9067H29.9085ZM27.3832 13.2072V13.1635C27.3745 13.1162 27.4095 13.0637 27.455 13.0445C27.6177 12.9447 27.8732 12.9797 28.057 13.0532C28.2022 13.0532 28.4297 13.2072 28.4122 13.37C28.393 13.4802 28.211 13.5257 28.092 13.5257C27.966 13.5257 27.8732 13.426 27.7647 13.363C27.6457 13.3262 27.4165 13.3437 27.3815 13.2072H27.3832ZM26.097 13.2072C26.0497 13.3455 25.831 13.3262 25.7137 13.363C25.6035 13.426 25.5125 13.5257 25.3847 13.5257C25.2657 13.5257 25.075 13.4785 25.0645 13.363C25.0487 13.2072 25.2657 13.0532 25.4127 13.0532C25.6035 12.978 25.8397 12.943 26.0217 13.0445C26.0585 13.0637 26.1057 13.1162 26.0865 13.1635V13.2072H26.097Z" fill="#F4F4F4"/>
</g>
<defs>
<clipPath id="clip0_74_330">
<rect width="56" height="56" fill="white" transform="translate(0.111206)"/>
</clipPath>
</defs>
</svg>
