<svg width="53" height="52" viewBox="0 0 53 52" fill="none" xmlns="http://www.w3.org/2000/svg">
<g clip-path="url(#clip0_74_352)">
<path d="M26.1132 0.116211C12.9441 0.116212 13.7665 5.82711 13.7665 5.82711L13.7811 11.7435H26.348V13.5199H8.78961C8.78961 13.5199 0.362732 12.5643 0.362732 25.852C0.362731 39.1397 7.7179 38.6684 7.7179 38.6684H12.1075V32.5024C12.1075 32.5024 11.8709 25.1473 19.3452 25.1473H31.8094C31.8094 25.1473 38.8122 25.2605 38.8122 18.3793V7.00159C38.8122 7.00159 39.8754 0.116211 26.1132 0.116211ZM19.1837 4.09475C20.434 4.09475 21.4446 5.10531 21.4446 6.35562C21.4446 7.60594 20.434 8.61649 19.1837 8.61649C17.9334 8.61649 16.9229 7.60594 16.9229 6.35562C16.9229 5.10531 17.9334 4.09475 19.1837 4.09475Z" fill="url(#paint0_linear_74_352)"/>
<path d="M26.4872 51.7209C39.6562 51.7209 38.8339 46.01 38.8339 46.01L38.8192 40.0936H26.2523V38.3172H43.8107C43.8107 38.3172 52.2376 39.2729 52.2376 25.9852C52.2376 12.6975 44.8824 13.1687 44.8824 13.1687H40.4928V19.3347C40.4928 19.3347 40.7294 26.6899 33.2551 26.6899H20.7909C20.7909 26.6899 13.7881 26.5767 13.7881 33.4578V44.8356C13.7881 44.8356 12.7249 51.7209 26.4872 51.7209ZM33.4166 47.7424C32.1663 47.7424 31.1557 46.7318 31.1557 45.4815C31.1557 44.2312 32.1663 43.2206 33.4166 43.2206C34.6669 43.2206 35.6774 44.2312 35.6774 45.4815C35.6775 46.7318 34.6669 47.7424 33.4166 47.7424Z" fill="url(#paint1_linear_74_352)"/>
</g>
<defs>
<linearGradient id="paint0_linear_74_352" x1="5.348" y1="4.75792" x2="31.0553" y2="30.2087" gradientUnits="userSpaceOnUse">
<stop stop-color="#387EB8"/>
<stop offset="1" stop-color="#366994"/>
</linearGradient>
<linearGradient id="paint1_linear_74_352" x1="21.1271" y1="21.1008" x2="48.734" y2="47.1984" gradientUnits="userSpaceOnUse">
<stop stop-color="#FFE052"/>
<stop offset="1" stop-color="#FFC331"/>
</linearGradient>
<clipPath id="clip0_74_352">
<rect width="52" height="52" fill="white" transform="translate(0.333374)"/>
</clipPath>
</defs>
</svg>
