<svg width="57" height="56" viewBox="0 0 57 56" fill="none" xmlns="http://www.w3.org/2000/svg">
<g clip-path="url(#clip0_74_361)">
<path d="M46.5988 19.4625C46.0179 19.2683 45.4159 19.0845 44.7961 18.9107C44.898 18.5068 44.9915 18.1082 45.0746 17.7163C46.4392 11.2816 45.547 6.0977 42.5003 4.39095C39.5789 2.75441 34.8011 4.46077 29.9759 8.54008C29.5119 8.93234 29.0466 9.34765 28.5815 9.78291C28.2716 9.49493 27.9622 9.21664 27.6535 8.95045C22.5965 4.58859 17.5276 2.75044 14.4839 4.46213C11.5653 6.10342 10.701 10.9767 11.9293 17.075C12.048 17.664 12.1866 18.2655 12.3434 18.8771C11.626 19.0749 10.9334 19.2858 10.2708 19.5102C4.34196 21.5182 0.555542 24.6652 0.555542 27.9295C0.555542 31.3008 4.62026 34.6824 10.7956 36.7328C11.2829 36.8946 11.7886 37.0476 12.3097 37.1928C12.1406 37.8543 11.9934 38.5025 11.8699 39.1347C10.6987 45.1271 11.6134 49.8853 14.5242 51.5162C17.5308 53.2005 22.5768 51.4693 27.4903 47.297C27.8786 46.9672 28.2684 46.6174 28.6588 46.2508C29.1649 46.7242 29.6702 47.1723 30.1727 47.5925C34.932 51.571 39.6326 53.1776 42.5407 51.5421C45.5444 49.8529 46.5205 44.7415 45.2532 38.5226C45.1564 38.0477 45.0438 37.5624 44.9173 37.0686C45.2717 36.9668 45.6195 36.8618 45.9587 36.7525C52.3786 34.6863 56.5555 31.3459 56.5555 27.9295C56.5555 24.6534 52.647 21.4852 46.5988 19.4625ZM45.2064 34.5466C44.9002 34.6451 44.586 34.7403 44.2658 34.8326C43.5571 32.653 42.6005 30.3353 41.43 27.9408C42.547 25.6033 43.4666 23.3153 44.1554 21.1498C44.7283 21.3109 45.2843 21.4807 45.8201 21.6599C51.0022 23.3929 54.1632 25.9552 54.1632 27.9295C54.1632 30.0325 50.7494 32.7624 45.2064 34.5466ZM42.9064 38.974C43.4668 41.7239 43.5468 44.2101 43.1756 46.1537C42.8421 47.9002 42.1713 49.0645 41.342 49.5309C39.5772 50.5232 35.8031 49.2333 31.7329 45.8309C31.2663 45.4408 30.7963 45.0244 30.3248 44.5836C31.9028 42.9071 33.4798 40.9582 35.0189 38.7937C37.7261 38.5604 40.2838 38.1789 42.6032 37.658C42.7175 38.1057 42.8189 38.5447 42.9064 38.974ZM19.6472 49.3594C17.923 49.9509 16.5497 49.9679 15.7195 49.5029C13.9531 48.5132 13.2188 44.6928 14.2205 39.5681C14.3352 38.9812 14.4718 38.3783 14.6292 37.7621C16.9232 38.2549 19.4621 38.6095 22.1758 38.8232C23.7253 40.9412 25.3479 42.888 26.983 44.5926C26.6258 44.9276 26.2699 45.2466 25.916 45.5471C23.7433 47.3921 21.566 48.701 19.6472 49.3594ZM11.5693 34.5338C8.83869 33.6271 6.58364 32.4488 5.03792 31.163C3.64899 30.0075 2.94774 28.8603 2.94774 27.9295C2.94774 25.9486 5.98786 23.422 11.0582 21.7047C11.6735 21.4963 12.3175 21.2999 12.9858 21.1155C13.6866 23.3298 14.6058 25.6449 15.7152 27.986C14.5915 30.3619 13.6592 32.7139 12.9516 34.9542C12.4751 34.8211 12.0135 34.6811 11.5693 34.5338ZM14.2771 16.6287C13.2247 11.4039 13.9236 7.46244 15.6825 6.47341C17.5559 5.41979 21.6987 6.92203 26.0651 10.6883C26.3442 10.929 26.6244 11.181 26.9054 11.4416C25.2783 13.1388 23.6706 15.071 22.1348 17.1765C19.5011 17.4136 16.98 17.7945 14.6621 18.3046C14.5163 17.7352 14.3872 17.1757 14.2771 16.6287ZM38.433 22.423C37.8788 21.4932 37.31 20.5854 36.73 19.7024C38.5168 19.9218 40.2287 20.2131 41.8363 20.5695C41.3537 22.0721 40.7521 23.6432 40.044 25.2538C39.536 24.317 38.9987 23.3724 38.433 22.423ZM28.5823 13.1025C29.6857 14.2638 30.7907 15.5603 31.8777 16.9671C30.7824 16.9169 29.6735 16.8907 28.5555 16.8907C27.4481 16.8907 26.3474 16.9163 25.2589 16.9657C26.3469 15.572 27.4616 14.2771 28.5823 13.1025ZM18.6685 22.439C18.1149 23.3714 17.5876 24.3109 17.0876 25.2521C16.391 23.6471 15.795 22.0689 15.3082 20.5449C16.9059 20.1976 18.6097 19.9136 20.3851 19.6983C19.797 20.5895 19.2235 21.5039 18.6685 22.4389V22.439ZM20.4363 36.3264C18.602 36.1276 16.8725 35.8582 15.2752 35.5205C15.7698 33.9693 16.3789 32.3574 17.0903 30.7178C17.5916 31.6583 18.121 32.5982 18.6779 33.5326H18.678C19.2453 34.4846 19.833 35.417 20.4363 36.3264ZM28.6484 42.9203C27.5146 41.7319 26.3836 40.4173 25.2791 39.0033C26.3513 39.0442 27.4445 39.0651 28.5555 39.0651C29.697 39.0651 30.8253 39.0401 31.936 38.9921C30.8455 40.4316 29.7444 41.7482 28.6484 42.9203ZM40.0668 30.6343C40.8153 32.2915 41.4463 33.8951 41.9473 35.4198C40.3236 35.7796 38.5705 36.0694 36.7235 36.2848C37.3048 35.3898 37.8786 34.4665 38.4425 33.5166C39.013 32.5557 39.5546 31.5933 40.0668 30.6343ZM36.3703 32.3556C35.4949 33.8301 34.5962 35.2376 33.6838 36.5662C32.0221 36.6817 30.3053 36.7411 28.5555 36.7411C26.8128 36.7411 25.1177 36.6885 23.4854 36.5856C22.5362 35.2396 21.618 33.8279 20.7482 32.3683H20.7484C19.8809 30.9128 19.0824 29.4449 18.359 27.9852C19.0822 26.5222 19.8786 25.0527 20.7411 23.5998L20.7409 23.6001C21.6057 22.1432 22.5159 20.7384 23.4563 19.4008C25.1217 19.2785 26.8295 19.2147 28.5554 19.2147H28.5555C30.2893 19.2147 31.9993 19.279 33.6642 19.4023C34.5902 20.7302 35.4942 22.1304 36.3624 23.5875C37.2405 25.0608 38.0471 26.5206 38.7766 27.9522C38.0493 29.4085 37.2445 30.8829 36.3703 32.3556ZM41.3053 6.40427C43.1806 7.45479 43.9098 11.6915 42.7316 17.2472C42.6565 17.6017 42.5718 17.9628 42.4799 18.3288C40.1566 17.808 37.6337 17.4205 34.9923 17.1798C33.4536 15.0511 31.859 13.1159 30.2585 11.4406C30.6888 11.0384 31.1185 10.655 31.5464 10.2931C35.6807 6.79799 39.5448 5.41804 41.3053 6.40427ZM28.5555 23.0717C31.3173 23.0717 33.5562 25.2466 33.5562 27.9295C33.5562 30.6123 31.3173 32.7872 28.5555 32.7872C25.7938 32.7872 23.5549 30.6123 23.5549 27.9295C23.5549 25.2466 25.7938 23.0717 28.5555 23.0717Z" fill="#00D8FF"/>
</g>
<defs>
<clipPath id="clip0_74_361">
<rect width="56" height="54.4" fill="white" transform="translate(0.555542 0.800049)"/>
</clipPath>
</defs>
</svg>
