<svg width="57" height="56" viewBox="0 0 57 56" fill="none" xmlns="http://www.w3.org/2000/svg">
<g clip-path="url(#clip0_74_364)">
<path d="M48.9643 31.1749C47.016 31.1851 45.3228 31.6543 43.9049 32.348C43.3847 31.3177 42.8645 30.3997 42.7727 29.7265C42.6707 28.941 42.5483 28.4616 42.6707 27.5232C42.7931 26.5848 43.3439 25.2485 43.3337 25.1465C43.3235 25.0445 43.2113 24.5651 42.0893 24.5549C40.9672 24.5447 39.9982 24.7691 39.886 25.0649C39.7738 25.3607 39.5596 26.0339 39.4168 26.7276C39.2229 27.7476 37.1727 31.3891 35.9996 33.2966C35.6222 32.552 35.2958 31.8991 35.2244 31.3789C35.1224 30.5935 35 30.1141 35.1224 29.1756C35.2448 28.2372 35.7956 26.901 35.7854 26.799C35.7752 26.697 35.663 26.2175 34.541 26.2073C33.4189 26.1971 32.4499 26.4215 32.3377 26.7174C32.2255 27.0132 32.1031 27.7068 31.8685 28.38C31.6339 29.0532 28.9104 35.1327 28.1964 36.7035C27.8291 37.5093 27.5129 38.152 27.2885 38.5906C27.2885 38.5906 27.2783 38.6212 27.2477 38.6722C27.0539 39.0496 26.9417 39.2536 26.9417 39.2536C26.9417 39.2536 26.9417 39.2536 26.9417 39.2638C26.7887 39.5392 26.6255 39.7942 26.5439 39.7942C26.4827 39.7942 26.3705 39.0598 26.5643 38.0602C26.9723 35.9487 27.9413 32.6642 27.9311 32.552C27.9311 32.4908 28.1148 31.9195 27.2987 31.6237C26.5031 31.3279 26.2175 31.8175 26.1461 31.8175C26.0747 31.8175 26.0237 31.9909 26.0237 31.9909C26.0237 31.9909 26.9111 28.2984 24.3304 28.2984C22.7188 28.2984 20.4951 30.0631 19.3934 31.6543C18.6998 32.0317 17.2208 32.8376 15.6397 33.7046C15.0379 34.0412 14.4157 34.3778 13.8342 34.694C13.7934 34.6532 13.7526 34.6022 13.7118 34.5614C10.5905 31.2259 4.81712 28.8696 5.06193 24.3917C5.15373 22.7596 5.71475 18.4755 16.1497 13.2733C24.7384 9.04012 31.5727 10.2132 32.7559 12.8143C34.4492 16.5272 29.094 23.4226 20.2197 24.4223C16.8331 24.7997 15.0583 23.494 14.6095 23.0044C14.1403 22.4944 14.0689 22.4638 13.8954 22.5658C13.6098 22.7188 13.7934 23.1778 13.8954 23.443C14.1607 24.1367 15.2521 25.3607 17.0984 25.9625C18.7304 26.4929 22.6984 26.7888 27.5027 24.9323C32.8783 22.8514 37.0809 17.0678 35.8466 12.2226C34.6124 7.30606 26.4521 5.6842 18.7304 8.4281C14.1403 10.0602 9.16248 12.6307 5.58215 15.9764C1.3286 19.9545 0.655372 23.4124 0.930782 24.8609C1.92022 30.0019 9.00947 33.3476 11.8452 35.8263C11.7024 35.9079 11.5698 35.9793 11.4576 36.0405C10.0397 36.7443 4.63351 39.5698 3.28707 42.5585C1.75701 45.945 3.53187 48.3727 4.70492 48.6991C8.34645 49.709 12.09 47.8933 14.0995 44.8944C16.1089 41.8955 15.8641 37.999 14.9359 36.2139C14.9257 36.1935 14.9155 36.1731 14.8951 36.1527C15.2623 35.9385 15.6397 35.7141 16.0069 35.4999C16.7311 35.0715 17.4452 34.6736 18.0572 34.3472C17.7104 35.2959 17.4554 36.4281 17.333 38.0602C17.18 39.9778 17.9654 42.4667 18.9956 43.446C19.4546 43.8744 19.9953 43.8846 20.3421 43.8846C21.5457 43.8846 22.0863 42.8849 22.6882 41.7017C23.4226 40.2532 24.0856 38.5702 24.0856 38.5702C24.0856 38.5702 23.2594 43.1195 25.5035 43.1195C26.3195 43.1195 27.1457 42.0587 27.5129 41.5181V41.5283C27.5129 41.5283 27.5333 41.4977 27.5741 41.4263C27.6557 41.2937 27.7067 41.2121 27.7067 41.2121V41.1917C28.0331 40.6205 28.7676 39.325 29.859 37.1727C31.2667 34.3982 32.6233 30.9301 32.6233 30.9301C32.6233 30.9301 32.7457 31.7767 33.1639 33.1844C33.4087 34.0106 33.9188 34.9184 34.3268 35.7957C34.0004 36.2547 33.7964 36.5097 33.7964 36.5097C33.7964 36.5097 33.7964 36.5097 33.8066 36.5199C33.5413 36.8667 33.2557 37.2441 32.9395 37.6113C31.8277 38.9374 30.5016 40.4572 30.318 40.8959C30.1038 41.4161 30.1548 41.7935 30.5628 42.0995C30.8587 42.3239 31.3891 42.3545 31.9297 42.3239C32.9293 42.2525 33.6332 42.0077 33.98 41.8547C34.5206 41.6609 35.153 41.3651 35.7446 40.9265C36.8361 40.1206 37.4991 38.968 37.4379 37.4481C37.4073 36.6117 37.1319 35.7753 36.7953 34.9899C36.8973 34.847 36.9891 34.7042 37.0911 34.5614C38.8149 32.0419 40.1512 29.2776 40.1512 29.2776C40.1512 29.2776 40.2736 30.1243 40.6918 31.5319C40.8958 32.246 41.314 33.0212 41.6812 33.776C40.0594 35.0919 39.0597 36.6219 38.7027 37.6215C38.0601 39.478 38.5599 40.3144 39.5086 40.5083C39.937 40.6001 40.549 40.396 40.9978 40.2022C41.569 40.0186 42.2423 39.7024 42.8849 39.2332C43.9763 38.4274 45.027 37.3053 44.9658 35.7855C44.9352 35.0919 44.7515 34.4084 44.4965 33.7454C45.8736 33.1742 47.6484 32.858 49.9129 33.1232C54.7683 33.6944 55.7271 36.7239 55.5435 37.999C55.3599 39.274 54.3399 39.9676 54.0033 40.1818C53.6667 40.396 53.5545 40.4674 53.5851 40.6205C53.6259 40.8449 53.7891 40.8347 54.0747 40.7939C54.4725 40.7225 56.6248 39.7636 56.7166 37.4175C56.8696 34.4186 54.0135 31.1443 48.9643 31.1749ZM11.5086 43.803C9.8969 45.5574 7.65282 46.2205 6.68379 45.6594C5.64335 45.0576 6.05137 42.4667 8.03024 40.6103C9.23388 39.478 10.7843 38.4274 11.8146 37.7848C12.0492 37.6419 12.396 37.4379 12.8142 37.1829C12.8856 37.1421 12.9264 37.1217 12.9264 37.1217C13.008 37.0707 13.0896 37.0197 13.1712 36.9687C13.8954 39.6208 13.2018 41.9567 11.5086 43.803ZM23.239 35.8263C22.678 37.1931 21.5049 40.6919 20.7909 40.4981C20.1789 40.3348 19.8015 37.6828 20.6685 35.0613C21.1071 33.7454 22.0353 32.1746 22.576 31.5625C23.4532 30.5833 24.4222 30.2569 24.6568 30.6547C24.9526 31.1749 23.5858 34.9695 23.239 35.8263ZM32.9191 40.4572C32.6845 40.5797 32.4601 40.6613 32.3581 40.6001C32.2867 40.5593 32.4601 40.396 32.4601 40.396C32.4601 40.396 33.674 39.0904 34.1534 38.4988C34.4288 38.152 34.7552 37.744 35.102 37.2849V37.4175C35.102 38.9782 33.5924 40.0288 32.9191 40.4572ZM40.3858 38.7538C40.2124 38.6314 40.243 38.2234 40.8244 36.9483C41.0488 36.4485 41.5792 35.6121 42.4871 34.8062C42.5891 35.1327 42.6605 35.4489 42.6503 35.7447C42.6401 37.7134 41.2324 38.4478 40.3858 38.7538Z" fill="#CD6799"/>
</g>
<defs>
<clipPath id="clip0_74_364">
<rect width="56" height="56" fill="white" transform="translate(0.777771)"/>
</clipPath>
</defs>
</svg>
