<svg width="56" height="56" viewBox="0 0 56 56" fill="none" xmlns="http://www.w3.org/2000/svg">
<path d="M49.6584 20.0309H48.3137V13.5428C48.3137 13.5023 48.3073 13.4615 48.302 13.4206C48.2998 13.1629 48.2179 12.9099 48.0415 12.7094L37.2444 0.375569C37.2412 0.372418 37.238 0.371299 37.2358 0.367842C37.1714 0.295962 37.0964 0.23618 37.0171 0.18443C36.9936 0.168671 36.9699 0.155454 36.9453 0.14183C36.8766 0.104314 36.8037 0.0732025 36.7286 0.0507334C36.7083 0.0450399 36.69 0.0367029 36.6697 0.0314161C36.5881 0.0120987 36.5034 0 36.4176 0H9.88244C8.67074 0 7.68637 0.985488 7.68637 2.19618V20.0304H6.34199C4.60861 20.0304 3.20312 21.4353 3.20312 23.1693V39.4919C3.20312 41.2247 4.60861 42.6305 6.34199 42.6305H7.68647V53.8038C7.68647 55.0144 8.67084 56 9.88255 56H46.1178C47.3284 56 48.3138 55.0145 48.3138 53.8038V42.6305H49.6585C51.3914 42.6305 52.7972 41.2247 52.7972 39.4919V23.1698C52.7971 21.4359 51.3913 20.0309 49.6584 20.0309ZM9.88244 2.19658H35.3196V13.4325C35.3196 14.0391 35.8118 14.5305 36.4176 14.5305H46.1177V20.0317H9.88244V2.19658ZM36.3136 38.9611L35.2424 41.8316C32.9081 41.1502 30.9618 40.4451 28.7721 39.5197C28.4076 39.3749 28.0184 39.301 27.6291 39.2774C23.9312 39.035 20.4768 36.3103 20.4768 30.9573C20.4768 26.0422 23.591 22.3447 28.4804 22.3447C33.4925 22.3447 36.2418 26.14 36.2418 30.6163C36.2418 34.3394 34.5144 36.9654 32.3483 37.938V38.0362C33.6136 38.4024 35.0248 38.694 36.3136 38.9611ZM7.45904 38.2555L8.21292 35.1909C9.20939 35.7014 10.7428 36.2122 12.3236 36.2122C14.0277 36.2122 14.9264 35.5061 14.9264 34.436C14.9264 33.414 14.149 32.8307 12.1781 32.1251C9.4534 31.1761 7.67661 29.6673 7.67661 27.2831C7.67661 24.4857 10.0134 22.3447 13.8812 22.3447C15.7301 22.3447 17.093 22.7338 18.0659 23.1713L17.2378 26.1636C16.5818 25.8478 15.414 25.3856 13.8085 25.3856C12.2016 25.3856 11.4243 26.115 11.4243 26.9662C11.4243 28.0128 12.3484 28.4743 14.4642 29.277C17.3592 30.3471 18.7229 31.8559 18.7229 34.1678C18.7229 36.916 16.6059 39.2526 12.1049 39.2526C10.2313 39.2538 8.38261 38.767 7.45904 38.2555ZM46.1178 53.2094H9.88244V42.6305H46.1177V53.2094H46.1178ZM48.9176 39.0094H38.6749V22.6124H42.3969V35.8952H48.9176V39.0094Z" fill="#F4F4F4"/>
<path d="M28.3823 25.2885C25.8528 25.2885 24.3926 27.77 24.3926 30.8357C24.3674 33.9502 25.8759 36.334 28.3579 36.334C30.8632 36.334 32.3242 33.9738 32.3242 30.7634C32.3242 27.77 30.9136 25.2885 28.3823 25.2885Z" fill="#F4F4F4"/>
</svg>
